<!-- sample rectangle -->
<svg width="45.312500" height="14.500000" viewBox="0 0 45.3125 14.5" fill="none" xmlns="http://www.w3.org/2000/svg" xmlns:xlink="http://www.w3.org/1999/xlink">
	<desc>
			Created with Pixso.
	</desc>
	<defs/>
	<path id="Vector" d="M19.6433 14.2583L15.946 14.2583L18.2568 0.250305L21.9546 0.250305L19.6433 14.2583ZM12.8354 0.250305L9.31055 9.88513L8.89355 7.81036L8.8938 7.8111L7.64966 1.51154C7.64966 1.51154 7.49927 0.250305 5.89575 0.250305L0.0683594 0.250305L0 0.487488C0 0.487488 1.78198 0.85321 3.86768 2.08862L7.07983 14.2587L10.9324 14.2587L16.8147 0.250305L12.8354 0.250305ZM41.9175 14.2583L45.3125 14.2583L42.3525 0.249939L39.3801 0.249939C38.0078 0.249939 37.6733 1.29388 37.6733 1.29388L32.1589 14.2583L36.0134 14.2583L36.7842 12.1776L41.4844 12.1776L41.9175 14.2583ZM37.8489 9.30322L39.7917 4.06104L40.8845 9.30322L37.8489 9.30322ZM32.4482 3.6189L32.9758 0.610779C32.9758 0.610779 31.3477 0 29.6504 0C27.8154 0 23.4583 0.791016 23.4583 4.63739C23.4583 8.25629 28.5723 8.30121 28.5723 10.2021C28.5723 12.103 23.9851 11.7624 22.4712 10.5637L21.9216 13.709C21.9216 13.709 23.5725 14.5 26.095 14.5C28.6182 14.5 32.4246 13.2114 32.4246 9.70416C32.4246 6.06201 27.2646 5.7229 27.2646 4.1394C27.2649 2.55548 30.866 2.75897 32.4482 3.6189Z" fill="#979797" fill-opacity="1.000000" fill-rule="nonzero"/>
	<path id="Vector" d="M8.8938 7.81372L7.64966 1.51416C7.64966 1.51416 7.49927 0.25293 5.89575 0.25293L0.0683594 0.25293L0 0.490112C0 0.490112 2.80078 1.06268 5.4873 3.20789C8.05615 5.25824 8.8938 7.81372 8.8938 7.81372Z" fill="#979797" fill-opacity="1.000000" fill-rule="nonzero"/>
</svg>